<?xml version="1.0" standalone="no"?>
<!DOCTYPE svg PUBLIC "-//W3C//DTD SVG 20010904//EN"
 "http://www.w3.org/TR/2001/REC-SVG-20010904/DTD/svg10.dtd">
<svg version="1.0" xmlns="http://www.w3.org/2000/svg"
 width="275.000000pt" height="183.000000pt" viewBox="0 0 275.000000 183.000000"
 preserveAspectRatio="xMidYMid meet">

<g transform="translate(0.000000,183.000000) scale(0.100000,-0.100000)"
fill="#000000" stroke="none">
<path d="M0 915 l0 -915 1375 0 1375 0 0 915 0 915 -1375 0 -1375 0 0 -915z
m976 741 c33 -9 30 -22 -5 -29 -25 -5 -30 -12 -33 -39 l-4 -33 -14 28 c-12 26
-17 28 -49 22 l-36 -7 24 25 c22 24 22 27 7 49 -24 33 -20 40 14 23 28 -14 30
-14 47 9 l18 24 3 -33 c2 -26 9 -35 28 -39z m-482 -113 l27 -82 100 -3 100 -3
-80 -57 -79 -58 29 -92 c15 -51 27 -93 26 -94 -1 -1 -36 22 -77 52 -41 30 -78
54 -82 54 -5 0 -42 -25 -83 -55 -41 -31 -75 -52 -75 -48 0 4 11 44 25 88 14
44 25 85 25 90 0 6 -35 35 -77 65 l-77 55 100 3 100 3 29 89 c16 50 32 87 36
83 3 -5 19 -45 33 -90z m640 -28 c38 20 39 20 20 -16 -15 -30 -15 -32 8 -56
l23 -25 -36 7 c-32 6 -36 4 -48 -22 l-14 -28 -8 31 c-7 25 -16 33 -41 38 l-33
7 30 17 c25 14 29 22 27 47 l-4 30 24 -22 c22 -21 26 -21 52 -8z m-23 -265 c9
-25 17 -30 42 -30 l32 -1 -24 -19 c-20 -17 -22 -24 -13 -50 13 -35 10 -36 -24
-14 -23 15 -26 15 -43 0 -25 -23 -32 -20 -25 11 6 22 2 31 -22 50 l-29 23 37
0 c32 0 37 3 43 30 4 17 9 30 11 30 3 0 10 -13 15 -30z m-128 -238 l32 -10
-32 -7 c-27 -6 -34 -13 -39 -43 l-7 -35 -16 27 c-14 23 -20 25 -51 20 l-35 -7
23 26 c23 24 23 26 7 51 -19 29 -18 30 19 16 22 -8 28 -6 43 18 l18 26 3 -35
c3 -31 8 -38 35 -47z"/>
</g>
</svg>
