<?xml version="1.0" standalone="no"?>
<!DOCTYPE svg PUBLIC "-//W3C//DTD SVG 20010904//EN"
 "http://www.w3.org/TR/2001/REC-SVG-20010904/DTD/svg10.dtd">
<svg version="1.0" xmlns="http://www.w3.org/2000/svg"
 width="2560.000000pt" height="1707.000000pt" viewBox="0 0 2560.000000 1707.000000"
 preserveAspectRatio="xMidYMid meet">

<g transform="translate(0.000000,1707.000000) scale(0.100000,-0.100000)"
fill="#000000" stroke="none">
<path d="M12610 11159 c-598 -43 -1179 -299 -1619 -714 -429 -405 -712 -955
-797 -1550 -26 -181 -26 -539 0 -720 95 -667 430 -1259 952 -1686 206 -168
534 -351 789 -439 634 -219 1349 -188 1947 87 1167 534 1777 1801 1468 3044
-214 855 -859 1556 -1696 1842 -230 79 -431 119 -684 137 -161 11 -193 11
-360 -1z m359 -355 c17 -4 31 -13 31 -21 0 -34 31 -73 68 -84 32 -9 44 -8 71
5 17 10 37 28 43 41 8 17 19 25 37 25 33 0 240 -52 306 -77 42 -16 49 -22 47
-42 -13 -90 105 -148 167 -82 l27 29 80 -42 c44 -23 119 -66 166 -95 l86 -55
-5 -52 c-5 -47 -3 -55 20 -78 37 -37 74 -43 118 -19 l36 20 79 -72 c44 -40
105 -102 137 -139 56 -63 58 -67 43 -88 -9 -12 -16 -40 -16 -61 0 -65 70 -114
127 -88 22 10 28 9 42 -11 40 -56 104 -164 142 -239 37 -74 39 -83 24 -92 -9
-5 -23 -25 -31 -44 -29 -68 13 -128 92 -135 l38 -3 28 -89 c45 -146 72 -280
56 -285 -7 -2 -25 -17 -40 -32 -53 -52 -30 -139 42 -160 l37 -11 6 -97 c4 -53
4 -139 0 -192 l-6 -97 -37 -11 c-72 -21 -95 -108 -42 -160 15 -15 33 -30 40
-32 16 -5 -11 -139 -56 -285 l-28 -89 -38 -3 c-79 -7 -121 -67 -92 -135 8 -19
22 -39 31 -44 15 -9 13 -18 -24 -92 -38 -75 -102 -183 -142 -239 -14 -20 -20
-21 -42 -11 -57 26 -127 -23 -127 -88 0 -21 7 -49 16 -61 15 -21 13 -25 -43
-88 -32 -37 -94 -100 -138 -140 -71 -64 -82 -71 -96 -59 -26 24 -73 29 -107
11 -43 -22 -55 -50 -49 -106 l6 -46 -86 -54 c-48 -30 -123 -73 -167 -96 l-80
-42 -27 29 c-62 66 -180 8 -167 -82 2 -20 -5 -26 -46 -41 -65 -25 -275 -78
-306 -78 -17 0 -30 9 -42 30 -23 41 -62 55 -110 40 -37 -10 -68 -49 -68 -83 0
-21 -45 -27 -200 -27 -155 0 -200 6 -200 27 0 34 -31 73 -68 83 -48 15 -87 1
-110 -40 -22 -39 -35 -38 -200 5 -178 47 -202 58 -195 84 8 31 -16 80 -48 96
-46 24 -87 19 -118 -14 l-28 -29 -84 44 c-46 25 -121 68 -166 97 l-82 51 6 46
c6 56 -6 84 -49 106 -34 18 -81 13 -107 -11 -14 -12 -25 -5 -96 59 -44 40
-106 103 -138 140 -56 63 -58 67 -43 88 9 12 16 40 16 61 0 65 -70 114 -127
88 -22 -10 -28 -9 -42 11 -40 56 -104 164 -142 239 -37 74 -39 83 -24 92 9 5
23 25 31 44 29 68 -13 128 -92 135 l-38 3 -28 89 c-45 146 -72 280 -56 285 7
2 25 17 40 32 53 52 30 139 -42 160 l-38 11 -4 97 c-2 53 -2 139 0 192 l5 97
37 11 c72 21 95 108 42 160 -15 15 -33 30 -40 32 -16 5 11 139 56 285 l28 89
38 3 c79 7 121 67 92 135 -8 19 -22 39 -31 44 -15 9 -13 18 24 92 38 75 102
183 142 239 14 20 20 21 42 11 57 -26 127 23 127 88 0 21 -7 49 -16 61 -15 21
-13 25 33 78 26 31 87 93 137 139 l89 82 36 -20 c44 -24 81 -18 118 19 23 23
25 31 20 78 l-5 52 81 52 c45 28 120 71 166 96 l84 44 28 -29 c62 -67 187 -3
165 84 -5 23 0 26 87 52 116 35 242 65 270 65 14 0 28 -11 39 -30 23 -41 62
-55 110 -40 37 11 68 49 68 84 0 8 10 17 23 19 36 7 312 8 346 1z"/>
<path d="M12755 10085 l-39 -645 23 -193 c13 -105 26 -206 28 -223 5 -27 2
-32 -22 -38 -15 -4 -29 -5 -32 -2 -2 2 -18 102 -34 223 l-29 218 -208 617
c-114 340 -208 614 -210 610 -1 -5 56 -294 127 -643 l129 -634 83 -203 c69
-169 81 -205 69 -212 -37 -24 -46 -11 -131 192 l-84 203 -364 550 c-200 302
-368 555 -373 560 -5 6 122 -255 283 -580 l292 -590 143 -190 142 -190 -21
-17 c-12 -10 -24 -18 -27 -18 -3 0 -66 79 -140 175 l-135 176 -499 440 c-274
243 -497 437 -495 432 2 -5 201 -232 441 -504 l438 -494 175 -135 c170 -131
174 -135 157 -155 -9 -11 -18 -22 -19 -24 -2 -2 -83 57 -181 132 l-178 135
-592 296 c-326 163 -595 296 -599 296 -5 0 242 -166 547 -368 l555 -368 200
-84 c110 -46 204 -87 208 -91 5 -4 3 -18 -5 -32 l-13 -25 -209 85 -208 84
-637 130 c-350 71 -640 129 -646 128 -5 0 269 -95 610 -210 l620 -210 228 -31
227 -32 0 -28 c0 -35 4 -35 -251 -3 l-198 25 -648 -40 c-631 -39 -720 -46
-658 -49 17 0 317 -19 668 -41 l638 -40 198 25 c255 32 251 32 251 -3 l0 -28
-227 -32 -228 -31 -620 -210 c-341 -115 -615 -210 -610 -210 6 -1 296 57 646
128 l637 130 208 84 209 85 13 -25 c8 -14 10 -28 5 -32 -4 -4 -98 -45 -208
-91 l-200 -84 -555 -368 c-305 -202 -552 -368 -547 -368 4 0 273 133 599 296
l592 296 178 135 c98 75 179 134 181 132 1 -2 10 -13 19 -24 17 -20 13 -24
-157 -155 l-175 -135 -438 -494 c-240 -272 -439 -499 -441 -504 -2 -5 221 189
495 432 l499 440 135 176 c74 96 137 175 140 175 3 0 15 -8 27 -18 l21 -17
-142 -190 -143 -190 -292 -590 c-161 -324 -288 -585 -283 -580 5 6 173 258
373 560 l364 550 84 203 c85 203 94 216 131 192 12 -7 0 -43 -69 -212 l-83
-203 -129 -634 c-71 -349 -128 -638 -127 -643 2 -4 96 270 210 610 l208 617
29 218 c16 121 32 221 34 223 3 3 17 2 32 -2 24 -6 27 -11 22 -38 -2 -17 -15
-118 -28 -224 l-23 -192 39 -645 c22 -354 42 -641 46 -637 3 4 23 294 45 644
l38 637 -23 193 c-13 106 -26 207 -28 224 -5 27 -2 32 22 38 15 4 29 5 32 2 2
-2 18 -102 34 -223 l29 -218 208 -617 c114 -340 208 -614 210 -610 1 5 -56
294 -127 643 l-129 634 -83 203 c-69 169 -81 205 -69 212 37 24 46 11 131
-192 l84 -203 364 -550 c200 -302 368 -554 373 -560 5 -5 -124 258 -286 585
l-295 595 -140 185 -139 185 21 17 c12 10 24 18 27 18 3 0 66 -79 140 -175
l135 -175 489 -433 c269 -237 493 -434 499 -436 5 -2 -189 221 -432 495 l-441
499 -175 135 c-170 131 -174 135 -157 155 9 11 18 22 19 24 2 2 83 -57 182
-132 l179 -136 533 -266 c528 -265 653 -325 634 -306 -5 5 -251 169 -545 364
l-535 354 -195 82 c-107 45 -201 85 -208 90 -12 7 -12 13 0 34 l13 26 209 -85
208 -85 641 -130 c352 -71 641 -128 643 -126 2 1 -282 98 -629 214 l-632 212
-212 27 -213 28 0 26 c0 15 2 29 5 32 3 2 105 -8 227 -24 l223 -28 655 40
c584 36 722 47 655 49 -11 1 -310 19 -665 41 l-645 40 -223 -28 c-122 -16
-224 -26 -227 -24 -3 3 -5 17 -5 32 l0 26 213 28 212 27 632 212 c347 116 631
213 629 214 -2 2 -291 -55 -643 -126 l-641 -130 -208 -85 -209 -85 -13 26
c-12 21 -12 27 0 34 7 5 101 45 208 90 l195 82 535 354 c294 195 540 359 545
364 19 19 -106 -41 -634 -306 l-533 -266 -179 -136 c-99 -75 -180 -134 -182
-132 -1 2 -10 13 -19 24 -17 20 -13 24 157 155 l175 135 441 499 c243 274 437
497 432 495 -6 -2 -230 -199 -499 -436 l-489 -433 -135 -175 c-74 -96 -137
-175 -140 -175 -3 0 -15 8 -27 18 l-21 17 139 185 140 185 295 595 c162 327
291 591 286 585 -5 -5 -173 -258 -373 -560 l-364 -550 -84 -203 c-85 -203 -94
-216 -131 -192 -12 7 0 43 69 212 l83 203 129 634 c71 349 128 638 127 643 -2
4 -96 -270 -210 -610 l-208 -617 -29 -218 c-16 -121 -32 -221 -34 -223 -3 -3
-17 -2 -32 2 -24 6 -27 11 -22 38 2 17 15 118 28 224 l23 192 -39 645 c-22
355 -42 645 -45 645 -3 0 -23 -290 -45 -645z"/>
<path d="M0 2845 l0 -2845 12800 0 12800 0 0 2845 0 2845 -12800 0 -12800 0 0
-2845z"/>
</g>
</svg>
