<?xml version="1.0" standalone="no"?>
<!DOCTYPE svg PUBLIC "-//W3C//DTD SVG 20010904//EN"
 "http://www.w3.org/TR/2001/REC-SVG-20010904/DTD/svg10.dtd">
<svg version="1.0" xmlns="http://www.w3.org/2000/svg"
 width="2560.000000pt" height="1280.000000pt" viewBox="0 0 2560.000000 1280.000000"
 preserveAspectRatio="xMidYMid meet">

<g transform="translate(0.000000,1280.000000) scale(0.100000,-0.100000)"
fill="#000000" stroke="none">
<path d="M0 6400 l0 -6400 12800 0 12800 0 0 2130 0 2130 -8532 2 -8533 3
2128 1065 c1170 586 2127 1067 2127 1070 0 3 -955 483 -2122 1067 l-2123 1062
8528 0 8527 1 0 2135 0 2135 -12800 0 -12800 0 0 -6400z m4056 665 c70 -175
102 -245 113 -245 9 0 124 34 256 75 132 40 241 73 242 71 1 -1 -58 -106 -131
-233 l-133 -231 218 -149 c120 -81 218 -150 219 -153 0 -3 -114 -23 -252 -44
-139 -20 -258 -39 -263 -41 -7 -2 -5 -79 7 -236 10 -129 17 -248 16 -265 -3
-31 -4 -30 -143 98 -77 71 -165 151 -196 178 l-56 49 -194 -178 c-179 -165
-194 -177 -197 -153 -1 15 6 133 17 262 10 129 15 238 12 241 -3 4 -122 24
-263 45 -142 21 -258 41 -258 44 1 3 99 72 220 153 l218 149 -133 231 c-74
128 -133 233 -131 234 1 1 112 -31 246 -72 135 -41 250 -75 256 -75 7 0 55
110 109 245 53 135 98 245 100 245 2 0 47 -110 101 -245z"/>
</g>
</svg>
