<?xml version="1.0" standalone="no"?>
<!DOCTYPE svg PUBLIC "-//W3C//DTD SVG 20010904//EN"
 "http://www.w3.org/TR/2001/REC-SVG-20010904/DTD/svg10.dtd">
<svg version="1.0" xmlns="http://www.w3.org/2000/svg"
 width="297.000000pt" height="170.000000pt" viewBox="0 0 297.000000 170.000000"
 preserveAspectRatio="xMidYMid meet">

<g transform="translate(0.000000,170.000000) scale(0.100000,-0.100000)"
fill="#000000" stroke="none">
<path d="M0 850 l0 -850 495 0 495 0 0 850 0 850 -495 0 -495 0 0 -850z"/>
<path d="M1980 850 l0 -850 495 0 495 0 0 850 0 850 -495 0 -495 0 0 -850z"/>
<path d="M1465 1159 c-18 -20 -18 -22 -2 -16 9 4 17 2 17 -3 0 -5 6 -8 13 -6
6 1 9 1 6 -1 -4 -2 -5 -14 -2 -26 4 -19 3 -20 -6 -5 -7 10 -19 14 -31 11 -21
-6 -21 -6 -2 -27 11 -11 17 -27 15 -34 -7 -18 -23 -4 -23 19 0 11 -6 22 -14
25 -9 3 -12 12 -9 22 4 10 -1 8 -15 -6 -12 -12 -26 -22 -32 -22 -5 0 -10 -5
-10 -11 0 -5 4 -7 10 -4 5 3 19 1 30 -5 15 -8 20 -8 21 2 1 24 20 -36 23 -72
2 -19 7 -44 11 -55 8 -18 7 -19 -8 -6 -9 7 -17 24 -17 37 0 28 -34 34 -44 8
-8 -21 -8 -24 4 -24 6 0 10 7 10 15 0 8 4 15 8 15 5 0 9 -6 9 -12 0 -7 3 -24
8 -38 8 -25 8 -25 -14 -6 -11 11 -21 17 -21 14 0 -13 33 -68 41 -68 5 0 9 -9
9 -21 0 -14 -5 -19 -14 -16 -9 4 -13 0 -12 -11 3 -19 56 -26 56 -7 0 5 11 -1
23 -15 24 -27 52 -36 61 -21 4 6 17 4 33 -4 26 -13 79 -11 96 5 5 4 -18 28
-51 54 -36 27 -64 58 -70 76 -14 37 -3 38 33 3 24 -24 26 -25 16 -5 -15 28 1
30 28 3 13 -13 21 -16 24 -8 2 7 3 -1 1 -16 -2 -15 0 -25 5 -22 5 3 12 -3 15
-12 3 -10 3 2 0 27 -4 33 -2 41 5 30 6 -8 11 -28 12 -45 2 -23 4 -20 9 15 l7
45 2 -40 c1 -22 6 -49 11 -60 9 -20 13 14 15 115 1 54 -74 176 -101 166 -9 -3
-11 1 -7 12 6 15 5 15 -10 3 -15 -12 -17 -12 -10 4 5 15 3 17 -11 12 -9 -4
-15 -3 -12 2 6 9 -36 31 -59 31 -8 0 -15 -4 -15 -10 0 -13 -37 -13 -42 1 -2 6
-12 0 -23 -12z m74 -67 c-1 -15 -2 -15 -6 1 -2 9 -9 14 -15 11 -7 -4 -8 -2 -4
5 10 15 26 4 25 -17z m-7 -54 c-8 -8 -9 -4 -5 13 4 13 8 18 11 10 2 -7 -1 -18
-6 -23z m138 -43 c0 -11 -29 -11 -33 -1 -4 10 1 12 14 9 10 -3 19 -7 19 -8z
m-50 -10 c0 -8 -2 -15 -4 -15 -2 0 -6 7 -10 15 -3 8 -1 15 4 15 6 0 10 -7 10
-15z m-20 -15 c0 -5 -2 -10 -4 -10 -3 0 -8 5 -11 10 -3 6 -1 10 4 10 6 0 11
-4 11 -10z m-75 -50 c-3 -5 -1 -10 5 -10 7 0 6 -5 -2 -14 -9 -10 -15 -11 -20
-3 -5 8 -9 6 -14 -6 -3 -9 -10 -14 -15 -11 -5 3 3 16 19 29 30 27 36 30 27 15z"/>
<path d="M1320 924 c0 -13 18 -39 24 -34 2 3 -2 14 -10 24 -8 11 -14 16 -14
10z"/>
<path d="M1821 874 c0 -11 3 -14 6 -6 3 7 2 16 -1 19 -3 4 -6 -2 -5 -13z"/>
<path d="M1120 846 c0 -2 7 -9 15 -16 13 -11 14 -10 9 4 -5 14 -24 23 -24 12z"/>
<path d="M1237 844 c-8 -8 11 -67 25 -76 21 -13 35 -9 41 12 4 14 -2 23 -23
32 -16 7 -27 15 -24 19 5 9 -11 21 -19 13z"/>
<path d="M1355 840 c-3 -5 -1 -10 4 -10 6 0 11 5 11 10 0 6 -2 10 -4 10 -3 0
-8 -4 -11 -10z"/>
<path d="M1806 842 c-2 -4 -1 -14 4 -22 7 -11 9 -9 7 8 -1 24 -3 26 -11 14z"/>
<path d="M1350 783 c0 -7 -3 -12 -7 -12 -21 3 -33 -2 -33 -15 0 -21 19 -30 57
-28 18 2 33 -2 33 -7 0 -16 51 -22 86 -11 19 7 34 15 34 19 0 11 -23 31 -34
31 -6 0 -4 -4 4 -10 8 -5 12 -12 8 -15 -3 -4 -15 2 -25 12 -13 13 -27 17 -44
13 -37 -9 -47 -7 -63 15 -9 11 -16 14 -16 8z"/>
<path d="M1796 773 c-4 -5 -13 -8 -18 -8 -6 0 -13 -7 -15 -15 -4 -13 -3 -13 7
0 9 12 11 9 6 -15 -3 -16 -3 -24 0 -17 3 6 10 10 14 7 5 -3 12 0 16 6 4 8 3 9
-4 5 -15 -9 -15 -1 -2 25 11 20 9 25 -4 12z"/>
<path d="M1187 756 c-3 -8 1 -22 9 -33 13 -17 14 -16 8 12 -8 37 -10 39 -17
21z"/>
<path d="M1536 741 c-3 -4 5 -6 18 -4 13 3 27 0 31 -7 4 -7 1 -11 -6 -9 -48 6
-56 0 -87 -63 -2 -5 4 -8 12 -8 9 0 20 8 23 18 10 27 25 33 78 27 55 -6 71 0
77 29 5 30 -18 30 -46 0 -21 -24 -26 -25 -31 -11 -4 9 -5 20 -2 24 3 4 -10 9
-28 10 -19 2 -36 -1 -39 -6z"/>
<path d="M1262 640 c22 -30 38 -39 38 -20 0 6 -4 10 -10 10 -5 0 -10 7 -10 16
0 8 -4 12 -10 9 -5 -3 -10 -1 -10 4 0 6 -5 11 -10 11 -6 0 -1 -13 12 -30z"/>
<path d="M1689 654 c-16 -20 5 -24 29 -5 22 16 23 17 2 17 -12 0 -26 -6 -31
-12z"/>
<path d="M1729 633 c-13 -16 -12 -17 4 -4 9 7 17 15 17 17 0 8 -8 3 -21 -13z"/>
<path d="M1468 603 c12 -2 32 -2 45 0 12 2 2 4 -23 4 -25 0 -35 -2 -22 -4z"/>
<path d="M1353 585 c0 -11 11 -15 35 -15 20 0 33 1 31 3 -2 1 -13 9 -23 17
-13 10 -17 10 -12 3 9 -16 -6 -17 -20 -3 -7 7 -11 6 -11 -5z"/>
<path d="M1570 585 c-19 -23 -5 -29 27 -10 24 13 25 15 4 9 -16 -4 -21 -3 -17
5 10 16 0 13 -14 -4z"/>
<path d="M1490 568 c0 -6 -6 -19 -14 -27 -13 -14 -12 -16 12 -17 15 -1 21 1
15 3 -7 3 -13 9 -13 14 0 6 4 8 9 5 5 -4 7 3 4 14 -6 22 -13 27 -13 8z"/>
</g>
</svg>
