<?xml version="1.0" standalone="no"?>
<!DOCTYPE svg PUBLIC "-//W3C//DTD SVG 20010904//EN"
 "http://www.w3.org/TR/2001/REC-SVG-20010904/DTD/svg10.dtd">
<svg version="1.0" xmlns="http://www.w3.org/2000/svg"
 width="1024.000000pt" height="683.000000pt" viewBox="0 0 1024.000000 683.000000"
 preserveAspectRatio="xMidYMid meet">

<g transform="translate(0.000000,683.000000) scale(0.100000,-0.100000)"
fill="#000000" stroke="none">
<path d="M0 3415 l0 -3415 1705 0 1705 0 0 3415 0 3415 -1705 0 -1705 0 0
-3415z"/>
<path d="M6830 3415 l0 -3415 1705 0 1705 0 0 3415 0 3415 -1705 0 -1705 0 0
-3415z"/>
<path d="M5976 4445 c-8 -49 -4 -60 25 -75 19 -11 19 -10 4 26 -8 20 -15 43
-15 51 0 29 22 -1 67 -90 25 -50 56 -105 68 -122 12 -16 26 -39 30 -50 7 -18
8 -17 17 10 12 40 2 109 -22 160 -19 38 -132 135 -158 135 -5 0 -13 -20 -16
-45z"/>
<path d="M5775 4411 c-10 -17 33 -123 73 -180 40 -59 109 -118 195 -167 l54
-31 -55 81 c-31 44 -73 103 -95 129 -22 26 -36 51 -32 55 22 22 221 -253 210
-289 -3 -10 1 -19 11 -23 24 -9 25 -5 14 54 -5 29 -10 69 -10 89 0 49 -40 111
-123 188 -54 50 -79 66 -133 83 -73 22 -100 25 -109 11z"/>
<path d="M4303 4359 c-40 -26 -86 -69 -127 -121 -64 -79 -74 -102 -91 -208
l-5 -35 18 40 c58 131 131 236 220 315 31 27 54 50 51 50 -2 0 -32 -18 -66
-41z"/>
<path d="M4094 4318 c-76 -118 -95 -228 -78 -435 l8 -98 8 70 c8 65 28 173 77
405 11 52 18 96 16 98 -2 2 -16 -16 -31 -40z"/>
<path d="M5755 4255 c-16 -7 -25 -14 -20 -14 6 -1 27 -5 47 -10 l37 -9 -16 24
c-8 13 -16 24 -17 24 0 -1 -14 -7 -31 -15z"/>
<path d="M4275 4194 c-111 -73 -166 -158 -206 -312 -27 -106 -23 -120 10 -32
47 127 100 214 191 313 29 32 50 57 48 57 -2 0 -21 -12 -43 -26z"/>
<path d="M5757 4198 c15 -14 30 -19 59 -16 l39 3 -59 17 c-58 16 -58 16 -39
-4z"/>
<path d="M4366 4159 c-33 -17 -74 -41 -91 -55 -18 -13 -36 -24 -41 -24 -23 0
-111 -161 -147 -270 -30 -94 -26 -102 13 -22 73 154 169 274 300 375 45 34 39
34 -34 -4z"/>
<path d="M5775 4150 c-18 -8 -18 -9 5 -9 14 -1 62 -16 108 -35 46 -19 82 -32
80 -31 -2 2 -25 21 -53 44 -51 42 -93 51 -140 31z"/>
<path d="M6195 4130 c-4 -12 -1 -28 5 -35 8 -10 11 -36 8 -71 l-5 -57 19 37
c18 36 21 37 58 31 32 -5 40 -3 49 14 9 17 8 24 -9 41 -11 11 -26 20 -33 20
-7 0 -18 9 -25 20 -16 27 -59 26 -67 0z"/>
<path d="M3903 4080 c3 -53 96 -385 105 -376 14 15 -53 313 -87 386 l-21 45 3
-55z"/>
<path d="M5815 4085 c28 -25 64 -51 82 -60 35 -17 110 -20 133 -5 12 8 9 10
-12 10 -30 0 -89 22 -188 69 l-65 31 50 -45z"/>
<path d="M4552 3973 c-99 -124 -101 -128 -83 -148 84 -96 114 -272 76 -450 -8
-38 -15 -73 -15 -77 0 -5 131 -8 290 -8 l290 0 0 401 c0 378 -1 401 -17 394
-98 -40 -134 -49 -213 -49 -77 -1 -92 2 -151 32 -37 17 -69 32 -71 32 -3 0
-50 -57 -106 -127z m500 -30 c37 -36 37 -62 -2 -69 -16 -4 -30 -9 -30 -13 -1
-42 -26 -144 -46 -183 -14 -27 -23 -55 -21 -61 2 -7 -6 -20 -19 -29 -27 -22
-34 -22 -34 -2 0 8 -4 12 -10 9 -17 -11 -12 -197 6 -223 14 -21 14 -22 -5 -22
-13 0 -22 8 -25 23 -3 12 -9 40 -14 62 l-9 40 -12 -44 c-7 -24 -10 -54 -7 -67
5 -20 2 -24 -15 -24 -20 0 -21 4 -15 53 3 28 8 81 12 117 l6 65 -50 16 -50 15
-12 -73 c-12 -77 -8 -123 16 -160 13 -21 13 -23 -6 -23 -16 0 -24 14 -42 76
-18 65 -23 73 -30 53 -10 -27 -2 -73 20 -111 19 -33 9 -48 -16 -25 -30 27 -54
117 -42 157 17 58 12 129 -11 166 -25 41 -19 63 28 105 36 31 37 31 112 25 42
-4 100 -12 129 -18 69 -15 81 -4 93 91 5 40 11 76 14 81 3 5 0 12 -6 16 -8 5
-9 3 -4 -6 5 -9 4 -11 -3 -6 -24 15 -11 24 30 20 28 -3 51 -13 70 -31z"/>
<path d="M5015 3930 c3 -5 8 -10 11 -10 2 0 4 5 4 10 0 6 -5 10 -11 10 -5 0
-7 -4 -4 -10z"/>
<path d="M6075 4010 c28 -12 37 -12 30 0 -3 6 -16 10 -28 9 -21 0 -21 -1 -2
-9z"/>
<path d="M3855 3963 c14 -60 29 -101 65 -173 20 -41 45 -96 55 -123 32 -86 26
-43 -11 74 -36 113 -88 234 -105 245 -6 3 -7 -6 -4 -23z"/>
<path d="M5996 3971 c-14 -15 -15 -24 -6 -40 22 -43 78 -14 66 34 -8 30 -36
33 -60 6z"/>
<path d="M6218 3928 c-33 -46 -43 -73 -58 -155 -12 -67 -12 -73 8 -97 l20 -27
7 58 c11 99 36 227 47 240 6 7 8 13 5 13 -2 0 -15 -15 -29 -32z"/>
<path d="M4254 3921 c-95 -70 -154 -163 -189 -295 -20 -81 -29 -180 -18 -200
7 -13 13 0 23 56 29 167 86 298 175 403 31 36 54 65 52 65 -2 0 -22 -13 -43
-29z"/>
<path d="M6250 3905 c0 -22 -2 -71 -5 -110 l-5 -70 30 63 30 62 -24 48 -25 47
-1 -40z"/>
<path d="M3790 3925 c0 -27 130 -235 148 -235 7 0 -78 151 -111 198 -29 40
-37 48 -37 37z"/>
<path d="M6085 3920 c-3 -6 -9 -44 -12 -84 -6 -72 -5 -74 21 -91 34 -23 40
-16 22 26 -8 19 -17 61 -20 94 l-6 60 20 -40 c11 -22 20 -49 21 -60 0 -15 4
-11 15 14 8 18 14 34 12 35 -2 0 -17 14 -34 29 -21 19 -34 25 -39 17z"/>
<path d="M6000 3886 c0 -2 11 -11 25 -20 28 -19 33 -15 9 8 -14 15 -34 22 -34
12z"/>
<path d="M6338 3833 c-20 -21 -46 -58 -58 -82 -27 -55 -51 -165 -43 -204 l6
-30 15 29 c14 25 122 324 118 324 -1 0 -18 -17 -38 -37z"/>
<path d="M5411 3818 c0 -20 -6 -40 -11 -43 -7 -4 -7 -13 0 -25 12 -22 2 -159
-13 -177 -6 -9 -5 -18 3 -28 8 -10 11 -46 8 -115 l-3 -100 27 0 c25 0 27 2 18
26 -16 40 -12 166 5 191 13 19 13 22 -1 27 -12 5 -15 23 -14 98 1 51 -1 100
-4 108 -3 8 -7 29 -9 45 -4 27 -4 26 -6 -7z"/>
<path d="M6021 3813 c6 -18 15 -33 20 -33 15 0 10 16 -11 41 l-20 24 11 -32z"/>
<path d="M3796 3778 c107 -113 192 -304 245 -553 29 -135 36 -115 14 37 -18
123 -66 281 -116 379 -37 74 -133 179 -163 179 -17 0 -14 -6 20 -42z"/>
<path d="M6373 3761 c-19 -80 -92 -256 -124 -301 -22 -30 -28 -45 -20 -53 6
-6 11 -22 11 -35 0 -22 1 -22 16 -7 11 11 25 14 45 10 24 -6 31 -2 41 20 11
24 10 29 -11 46 -13 11 -32 19 -42 19 -27 0 -24 7 22 52 75 72 115 192 93 276
-10 34 -18 27 -31 -27z"/>
<path d="M3745 3760 c9 -58 21 -70 29 -29 5 26 2 38 -15 54 l-21 20 7 -45z"/>
<path d="M6019 3707 c29 -28 85 -91 124 -139 39 -48 73 -85 75 -83 2 2 -4 31
-14 65 -25 88 -92 161 -176 189 l-61 21 52 -53z"/>
<path d="M5940 3732 c-1 -44 115 -183 190 -226 44 -25 34 -9 -61 95 -42 46
-88 98 -102 114 -15 17 -27 24 -27 17z"/>
<path d="M4201 3635 c-63 -67 -107 -158 -119 -249 -15 -114 -2 -131 23 -30 27
106 76 221 122 287 18 26 31 47 29 47 -2 0 -27 -25 -55 -55z"/>
<path d="M3730 3632 c0 -25 34 -79 129 -197 53 -66 106 -133 118 -150 l23 -30
-15 43 c-29 86 -77 160 -165 252 -49 52 -89 89 -90 82z"/>
<path d="M5920 3622 c0 -24 133 -123 146 -109 3 3 -8 14 -23 26 -76 59 -123
91 -123 83z"/>
<path d="M4251 3565 c-26 -24 -59 -66 -74 -93 -33 -61 -64 -177 -71 -267 l-6
-70 23 85 c46 170 103 293 170 368 35 38 8 24 -42 -23z"/>
<path d="M6372 3544 c-27 -35 -36 -51 -23 -44 28 15 91 100 74 100 -4 0 -27
-25 -51 -56z"/>
<path d="M4327 3470 c-59 -37 -99 -81 -136 -150 -66 -123 -89 -294 -54 -396
l18 -49 7 135 c10 204 55 320 171 438 28 28 49 52 46 52 -3 0 -26 -13 -52 -30z"/>
<path d="M5915 3443 c-6 -31 -3 -39 17 -54 12 -10 24 -16 26 -15 5 6 -22 106
-29 106 -4 0 -10 -17 -14 -37z"/>
<path d="M3750 3465 c0 -24 55 -102 124 -175 45 -47 106 -123 136 -168 29 -46
55 -80 57 -78 17 17 -151 298 -206 343 -42 37 -111 85 -111 78z"/>
<path d="M5984 3398 c14 -40 36 -79 55 -99 l33 -33 -40 80 c-58 114 -76 134
-48 52z"/>
<path d="M6133 3433 c-26 -10 -11 -73 16 -73 9 0 22 -5 29 -12 9 -9 12 -8 12
4 0 9 3 23 6 31 3 9 -4 25 -15 36 -22 22 -27 23 -48 14z"/>
<path d="M5850 3410 c0 -5 4 -10 9 -10 5 0 42 -58 82 -130 41 -71 77 -130 80
-130 7 0 29 70 29 93 0 9 -14 32 -31 52 -37 41 -169 140 -169 125z"/>
<path d="M6056 3388 c8 -46 25 -88 35 -88 14 0 10 32 -11 78 -23 50 -32 54
-24 10z"/>
<path d="M6333 3341 c-112 -79 -137 -119 -106 -174 3 -5 29 27 58 70 54 79
120 151 130 141 6 -5 -125 -219 -158 -258 -12 -14 3 -2 33 26 30 28 69 61 86
72 26 18 32 30 38 74 4 29 10 63 13 76 8 34 -16 28 -94 -27z"/>
<path d="M5850 3349 c0 -98 67 -268 136 -346 l33 -38 -3 52 c-3 42 -14 68 -52
130 -27 43 -63 114 -81 158 -29 72 -33 76 -33 44z"/>
<path d="M4312 3341 c-29 -22 -51 -52 -79 -107 -37 -77 -38 -80 -41 -211 -3
-102 0 -150 13 -204 10 -38 19 -68 21 -66 2 2 -1 55 -7 118 -19 201 14 342
107 456 19 24 33 43 31 43 -2 0 -22 -13 -45 -29z"/>
<path d="M3745 3318 c77 -55 226 -244 387 -487 48 -74 88 -131 88 -126 0 13
-119 228 -183 330 -113 183 -231 305 -292 305 l-30 -1 30 -21z"/>
<path d="M3711 3293 c1 -10 5 -31 9 -48 l7 -30 7 27 c4 14 6 34 4 44 -4 24
-28 30 -27 7z"/>
<path d="M6085 3218 c-48 -101 -53 -154 -29 -290 18 -100 19 -102 25 -58 4 25
12 113 19 195 19 235 30 246 25 25 -2 -107 -7 -208 -11 -225 l-7 -30 31 29
c42 39 87 177 79 240 -6 42 -75 196 -88 196 -3 0 -23 -37 -44 -82z"/>
<path d="M4486 3182 c-98 -294 -66 -459 114 -585 73 -51 130 -66 292 -77 138
-9 165 -16 205 -52 22 -20 22 -20 55 5 41 31 101 46 188 47 163 1 267 37 359
125 80 77 114 151 113 254 0 76 -24 197 -60 301 l-19 55 -611 3 -610 2 -26
-78z m609 38 c3 -5 26 -10 50 -10 24 0 47 -4 50 -10 3 -5 14 -10 24 -10 10 0
30 -11 45 -25 15 -14 31 -25 37 -25 5 0 15 -11 21 -25 14 -32 118 -102 163
-111 39 -7 101 11 109 31 8 21 -3 42 -24 48 -15 4 -18 -1 -17 -22 3 -41 -34
-36 -47 7 -12 44 21 82 74 82 66 0 97 -39 107 -131 4 -43 1 -51 -39 -100 -56
-68 -86 -85 -189 -107 -76 -16 -97 -16 -209 -5 -136 14 -154 12 -146 -14 3
-10 -1 -31 -10 -47 -14 -29 -14 -29 4 -12 11 9 28 17 38 16 11 0 42 0 71 0 28
0 55 -4 58 -10 8 -13 94 -1 120 16 26 19 60 18 79 -2 25 -24 19 -53 -14 -72
-16 -9 -30 -21 -30 -26 0 -34 -78 -63 -95 -35 -5 6 -13 3 -22 -10 -8 -12 -24
-21 -37 -21 -13 0 -31 -9 -41 -20 -20 -23 -74 -27 -93 -8 -7 7 -27 11 -45 10
-21 -2 -38 3 -46 12 -10 12 -17 13 -38 3 -18 -8 -29 -8 -43 1 -11 6 -33 9 -49
6 -17 -4 -38 -3 -48 1 -10 4 -34 8 -53 9 -25 1 -38 7 -44 21 -7 16 -19 20 -62
21 -62 0 -94 22 -94 64 0 15 -7 33 -15 40 -8 7 -15 20 -15 30 0 10 -7 23 -15
30 -16 14 -21 65 -6 74 5 3 7 23 4 44 -6 45 20 83 77 112 22 11 59 39 83 62
67 64 100 86 148 99 106 27 213 36 224 19z"/>
<path d="M6438 3224 c-120 -64 -171 -130 -235 -302 -12 -32 26 8 159 166 71
83 134 152 140 152 7 0 7 -4 1 -12 -5 -7 -51 -67 -100 -133 -50 -66 -117 -148
-148 -182 -31 -35 -54 -63 -51 -63 15 0 126 46 157 66 42 26 83 72 110 125 33
65 62 220 42 219 -5 0 -38 -17 -75 -36z"/>
<path d="M4266 3006 c-21 -69 -24 -195 -6 -271 20 -87 77 -191 143 -262 73
-78 135 -120 235 -157 72 -28 90 -51 29 -39 -59 11 -131 44 -242 111 -116 70
-244 129 -335 156 l-55 15 47 -43 c69 -64 150 -114 259 -162 120 -53 202 -74
444 -113 105 -17 200 -34 213 -36 17 -4 22 -1 22 14 0 28 -25 39 -153 66 -196
41 -296 91 -399 203 -115 125 -166 255 -176 452 l-7 125 -19 -59z"/>
<path d="M3822 3017 c20 -18 69 -62 110 -98 75 -67 228 -179 228 -166 0 2 -18
28 -40 57 -44 58 -141 136 -250 200 -82 48 -98 50 -48 7z"/>
<path d="M5935 3010 c18 -31 68 -89 82 -94 10 -4 8 2 -5 22 -24 32 -89 94 -77
72z"/>
<path d="M5971 2894 c-35 -25 -24 -58 19 -62 47 -5 60 -18 61 -61 0 -27 2 -31
8 -17 4 11 4 38 0 60 -5 23 -8 44 -9 48 0 4 -13 16 -28 27 -27 18 -31 19 -51
5z"/>
<path d="M3870 2855 c33 -35 194 -145 253 -172 26 -12 67 -36 92 -53 72 -49
52 -18 -39 63 -86 77 -162 126 -253 165 -67 29 -82 28 -53 -3z"/>
<path d="M6302 2841 l-23 -19 27 -21 c34 -27 67 -13 62 27 -4 34 -35 40 -66
13z"/>
<path d="M6140 2795 c-11 -13 -10 -14 4 -9 9 3 16 10 16 15 0 13 -6 11 -20 -6z"/>
<path d="M5893 2735 c-49 -42 -97 -117 -129 -202 -13 -35 -22 -63 -20 -63 6 0
102 144 146 220 24 41 45 69 48 62 5 -16 -76 -184 -121 -249 -40 -59 -23 -58
38 3 68 68 88 108 93 189 3 44 1 75 -5 75 -5 0 -28 -16 -50 -35z"/>
<path d="M6244 2761 c4 -5 2 -11 -3 -13 -5 -2 -5 -13 0 -26 7 -18 15 -23 36
-20 51 6 38 68 -14 68 -13 0 -22 -4 -19 -9z"/>
<path d="M3920 2700 c14 -11 84 -42 155 -70 133 -52 212 -98 259 -150 33 -38
55 -40 24 -2 -35 43 -122 113 -186 149 -56 33 -173 74 -242 87 l-35 6 25 -20z"/>
<path d="M6065 2691 c-77 -22 -82 -25 -101 -69 -8 -20 -27 -53 -43 -72 -51
-65 -45 -65 33 0 128 106 136 112 136 102 0 -14 -161 -166 -211 -199 -54 -35
-33 -42 45 -13 102 39 175 108 220 213 l26 57 -23 -1 c-12 0 -49 -8 -82 -18z"/>
<path d="M6080 2507 c-14 -12 -37 -30 -50 -39 -14 -10 12 -1 58 18 146 62 125
31 -32 -46 -136 -68 -154 -74 -213 -74 l-64 -1 28 -22 c32 -26 85 -30 174 -13
84 16 129 44 191 119 63 77 62 81 -20 81 -34 -1 -54 -7 -72 -23z"/>
<path d="M5272 2439 c-23 -12 -65 -46 -92 -77 l-49 -55 -25 30 c-34 41 -155
103 -197 102 -33 0 -32 -1 17 -18 73 -27 107 -46 159 -91 l47 -41 62 60 c61
58 129 91 190 91 17 0 18 2 6 10 -25 16 -72 11 -118 -11z"/>
<path d="M4812 2383 c-8 -13 -5 -21 12 -34 35 -27 123 -69 179 -84 28 -7 46
-14 40 -14 -8 -1 -13 -17 -13 -45 0 -83 -62 -93 -205 -31 -89 39 -91 39 -234
42 -79 2 -162 8 -183 14 -48 12 -55 8 -28 -16 20 -18 13 -18 290 -13 43 1 74
-7 140 -36 107 -47 173 -55 237 -30 l48 18 -30 7 c-21 5 -24 7 -9 8 19 1 21 7
20 48 l-1 47 -55 16 c-30 9 -86 34 -125 54 -57 31 -64 37 -35 31 19 -3 77 -26
129 -51 52 -24 96 -42 100 -39 6 7 5 8 -64 53 -45 30 -157 72 -191 72 -7 0
-17 -8 -22 -17z"/>
<path d="M5300 2369 c-47 -21 -154 -98 -147 -105 2 -2 30 12 63 31 66 40 113
55 164 54 35 -1 34 -1 -25 -30 -33 -16 -86 -34 -118 -40 -42 -9 -63 -18 -73
-35 -21 -31 -15 -68 12 -72 18 -3 22 3 26 32 3 27 0 36 -12 37 -8 1 17 9 55
18 92 23 200 71 183 82 -10 6 -8 9 6 9 12 0 16 5 12 16 -3 9 -6 18 -6 20 0 13
-102 1 -140 -17z"/>
<path d="M5685 2329 c-27 -11 -57 -18 -68 -15 -10 2 -37 -4 -60 -14 -38 -16
-118 -36 -232 -56 l-40 -7 44 -9 c35 -8 67 -4 162 17 136 30 277 75 281 90 5
18 -36 15 -87 -6z"/>
<path d="M5785 2234 c-23 -11 -56 -13 -148 -8 -83 4 -127 2 -148 -6 -42 -18
-36 -30 9 -15 29 10 57 11 125 3 99 -12 141 -6 177 22 29 23 26 24 -15 4z"/>
<path d="M5215 2222 c-3 -3 -5 -13 -5 -23 0 -19 6 -22 95 -39 33 -7 109 -30
169 -51 60 -22 112 -39 116 -39 4 0 5 12 2 27 -3 18 1 30 13 40 11 7 16 13 13
13 -3 0 -55 11 -115 25 -133 30 -281 54 -288 47z"/>
<path d="M5805 2184 c-47 -18 -110 -22 -180 -11 l-50 7 50 -19 c81 -31 149
-24 217 24 28 19 16 18 -37 -1z"/>
<path d="M4920 2180 l-45 -6 34 -16 c25 -11 43 -13 65 -7 17 5 32 9 32 9 1 0
4 7 8 15 6 16 -12 17 -94 5z"/>
<path d="M4595 2159 c-16 -5 -66 -11 -110 -13 -44 -2 -91 -8 -105 -15 -49 -21
188 -8 242 14 l47 19 88 -41 c99 -46 143 -57 194 -46 31 7 27 8 -32 13 -48 5
-85 16 -138 43 -76 39 -125 45 -186 26z"/>
<path d="M5155 2145 c39 -31 127 -43 185 -25 34 10 13 17 -70 24 -36 3 -81 8
-100 11 -33 6 -34 5 -15 -10z"/>
<path d="M4678 2128 c13 -7 22 -20 22 -35 0 -15 -8 -27 -22 -33 -13 -5 -18 -9
-11 -9 6 -1 30 11 53 26 l41 27 -33 18 c-18 9 -42 17 -53 17 -19 0 -18 -1 3
-11z"/>
<path d="M5185 2105 c22 -14 46 -25 54 -25 8 0 -7 11 -33 25 -60 32 -73 32
-21 0z"/>
<path d="M5407 2113 c-4 -3 -28 -12 -54 -19 -27 -7 -38 -13 -25 -13 24 -1 92
24 92 33 0 8 -5 7 -13 -1z"/>
<path d="M5000 2100 c-8 -5 -10 -10 -5 -10 6 0 17 5 25 10 8 5 11 10 5 10 -5
0 -17 -5 -25 -10z"/>
<path d="M5268 2073 c6 -2 18 -2 25 0 6 3 1 5 -13 5 -14 0 -19 -2 -12 -5z"/>
<path d="M5680 2070 c-13 -8 -12 -10 3 -10 9 0 17 5 17 10 0 12 -1 12 -20 0z"/>
</g>
</svg>
